<?xml version="1.0" encoding="utf-8"?>
<?xml-stylesheet type="text/xsl" href="rss1.xsl"?>
<rss version="2.0" xmlns:atom="http://www.w3.org/2005/Atom" xmlns:content="http://purl.org/rss/1.0/modules/content/" xmlns:dc="http://purl.org/dc/elements/1.1/" xmlns:media="http://search.yahoo.com/mrss/">
<channel>
 <title>Getty</title>
 <link>http://www.gettyimg.com/</link>
 <atom:link href="http://www.gettyimg.com/" rel="self" type="application/rss+xml" />

 
                <item>
                <title><![CDATA[【PRORES HD】Poppy - Scary Mask ft. FEVER 333 (ProRes 1080)]]></title>
                <link><![CDATA[https://sharemania.us/threads/poppy-scary-mask-ft-fever-333-prores-1080.244814/]]></link>
                <description><![CDATA[<article>
<blockquote class="messageText SelectQuoteContainer ugc baseHtml">
<div style="text-align: center"><img src="https://i.ibb.co/8DC6R5S/Poppy-Scary-Mask-VTM.gif" class="bbCodeImage LbImage" alt="[​IMG]" data-url="https://i.ibb.co/8DC6R5S/Poppy-Scary-Mask-VTM.gif" style=""><br>
​</div>
<div class="ToggleTriggerAnchor bbCodeSpoilerContainer">
<button type="button" class="button bbCodeSpoilerButton ToggleTrigger Tooltip JsOnly" data-target="> .SpoilerTarget"><span>Spoiler: <span class="SpoilerTitle">ProRes</span></span></button>
<div class="SpoilerTarget bbCodeSpoilerText">
<div class="bbCodeBlock bbCodeCode">
<div class="type">Code:</div>
<pre>General
Complete name                            : Poppy - Scary Mask.mov
Format                                   : MPEG-4
Format profile                           : QuickTime
Codec ID                                 : qt   2005.03 (qt  )
File size                                : 3.79 GiB
Duration                                 : 3 min 3 s
Overall bit rate mode                    : Variable
Overall bit rate                         : 177 Mb/s
Frame rate                               : 23.976 FPS
Encoded date                             : 2019-04-10 07:39:02 UTC
Tagged date                              : 2019-04-10 07:40:41 UTC
Writing library                          : Apple QuickTime
TIM                                      : 01:00:00:00
TSC                                      : 24000
TSZ                                      : 1001

Video
ID                                       : 1
Format                                   : ProRes
Format version                           : Version 0
Format profile                           : 422 HQ
Codec ID                                 : apch
Duration                                 : 3 min 3 s
Bit rate mode                            : Variable
Bit rate                                 : 176 Mb/s
Width                                    : 2 048 pixels
Height                                   : 858 pixels
Display aspect ratio                     : 2.39:1
Frame rate mode                          : Constant
Frame rate                               : 23.976 (24000/1001) FPS
Color space                              : YUV
Chroma subsampling                       : 4:2:2
Scan type                                : Progressive
Bits/(Pixel*Frame)                       : 4.174
Stream size                              : 3.75 GiB (99%)
Writing library                          : Apple
Language                                 : English
Encoded date                             : 2019-04-10 07:39:02 UTC
Tagged date                              : 2019-04-10 07:39:02 UTC
Color primaries                          : BT.709
Transfer characteristics                 : BT.709
Matrix coefficients                      : BT.709

Audio
ID                                       : 2
Format                                   : PCM
Format settings                          : Little / Signed
Codec ID                                 : sowt
Duration                                 : 3 min 3 s
Bit rate mode                            : Constant
Bit rate                                 : 1 536 kb/s
Channel(s)                               : 2 channels
Channel layout                           : L R
Sampling rate                            : 48.0 kHz
Bit depth                                : 16 bits
Stream size                              : 33.6 MiB (1%)
Language                                 : English
Encoded date                             : 2019-04-10 07:39:02 UTC
Tagged date                              : 2019-04-10 07:39:02 UTC

Other
ID                                       : 3
Type                                     : Time code
Format                                   : QuickTime TC
Duration                                 : 3 min 3 s
Frame rate                               : 23.976 (24000/1001) FPS
Time code of first frame                 : 01:00:00:00
Time code of last frame                  : 01:03:03:02
Time code, stripped                      : Yes
Language                                 : English
Encoded date                             : 2019-04-10 07:39:02 UTC
Tagged date                              : 2019-04-10 07:39:02 UTC

</pre>
</div><div style="text-align: center">​</div></div>
</div><div style="text-align: center"><br>
<div class="bbCodeBlock bbCodeVfcHH HiddenContent">
<div class="attribution type">Hidden Content:</div>
<blockquote>You must reply before you can see the hidden data contained here.</blockquote>
</div></div>
<div class="messageTextEndMarker">&nbsp;</div>
</blockquote>
</article>]]></description>
                <author><![CDATA[fstambuk]]></author>
                </item>

                </channel></rss>